HIERARCHY
ROOT root
{
	OFFSET 0.000000 0.000000 0.000000
	CHANNELS 6 Xposition Yposition Zposition Zrotation Yrotation Xrotation
	JOINT lhip
	{
		OFFSET 0.058581 -0.082280 -0.017664
		CHANNELS 3 Zrotation Yrotation Xrotation
		JOINT lknee
		{
			OFFSET 0.043451 -0.386469 0.008037
			CHANNELS 3 Zrotation Yrotation Xrotation
			JOINT lankle
			{
				OFFSET -0.014790 -0.426874 -0.037428
				CHANNELS 3 Zrotation Yrotation Xrotation
				JOINT ltoe
				{
					OFFSET 0.041054 -0.060286 0.122042
					CHANNELS 3 Zrotation Yrotation Xrotation
					End Site
					{
						OFFSET 0.000000 0.000000 0.000000
					}
				}
			}
		}
	}
	JOINT rhip
	{
		OFFSET -0.060310 -0.090513 -0.013543
		CHANNELS 3 Zrotation Yrotation Xrotation
		JOINT rknee
		{
			OFFSET -0.043257 -0.383688 -0.004843
			CHANNELS 3 Zrotation Yrotation Xrotation
			JOINT rankle
			{
				OFFSET 0.019056 -0.420046 -0.034562
				CHANNELS 3 Zrotation Yrotation Xrotation
				JOINT rtoe
				{
					OFFSET -0.034840 -0.062106 0.130323
					CHANNELS 3 Zrotation Yrotation Xrotation
					End Site
					{
						OFFSET 0.000000 0.000000 0.000000
					}
				}
			}
		}
	}
	JOINT lowerback
	{
		OFFSET 0.004439 0.124404 -0.038385
		CHANNELS 3 Zrotation Yrotation Xrotation
		JOINT upperback
		{
			OFFSET 0.004488 0.137956 0.026820
			CHANNELS 3 Zrotation Yrotation Xrotation
			JOINT chest
			{
				OFFSET -0.002265 0.056032 0.002855
				CHANNELS 3 Zrotation Yrotation Xrotation
				JOINT lowerneck
				{
					OFFSET -0.013390 0.211636 -0.033468
					CHANNELS 3 Zrotation Yrotation Xrotation
					JOINT upperneck
					{
						OFFSET 0.010113 0.088937 0.050410
						CHANNELS 3 Zrotation Yrotation Xrotation
						End Site
						{
							OFFSET 0.000000 0.000000 0.000000
						}
					}
				}
				JOINT lclavicle
				{
					OFFSET 0.071702 0.114000 -0.018898
					CHANNELS 3 Zrotation Yrotation Xrotation
					JOINT lshoulder
					{
						OFFSET 0.122921 0.045205 -0.019046
						CHANNELS 3 Zrotation Yrotation Xrotation
						JOINT lelbow
						{
							OFFSET 0.255332 -0.015649 -0.022946
							CHANNELS 3 Zrotation Yrotation Xrotation
							JOINT lwrist
							{
								OFFSET 0.265709 0.012698 -0.007375
								CHANNELS 3 Zrotation Yrotation Xrotation
								End Site
								{
									OFFSET 0.000000 0.000000 0.000000
								}
							}
						}
					}
				}
				JOINT rclavicle
				{
					OFFSET -0.082954 0.112472 -0.023707
					CHANNELS 3 Zrotation Yrotation Xrotation
					JOINT rshoulder
					{
						OFFSET -0.113228 0.046853 -0.008472
						CHANNELS 3 Zrotation Yrotation Xrotation
						JOINT relbow
						{
							OFFSET -0.260127 -0.014369 -0.031269
							CHANNELS 3 Zrotation Yrotation Xrotation
							JOINT rwrist
							{
								OFFSET -0.269108 0.006794 -0.006027
								CHANNELS 3 Zrotation Yrotation Xrotation
								End Site
								{
									OFFSET 0.000000 0.000000 0.000000
								}
							}
						}
					}
				}
			}
		}
	}
}
MOTION
Frames: 11
Frame Time: 0.033333
-1.531308 0.710184 0.990287 -82.613550 0.250053 80.323239 -10.687245 0.717501 9.615003 -0.443473 -4.063002 6.217958 11.515090 21.016267 -11.647790 0.000000 -0.000000 0.000000 -7.994678 -2.368248 -12.917795 -0.517503 -7.740542 65.295061 8.020709 -5.009758 1.049581 0.000000 -0.000000 0.000000 0.568133 -1.138107 2.302299 0.579657 -0.756512 1.440622 -2.617894 1.151823 0.667367 0.290172 -6.645332 8.547654 1.091288 -5.738302 -1.675479 -24.288665 -2.980427 0.800798 -52.018499 -8.620024 8.127157 5.938473 -20.625378 6.309330 -3.916418 -0.193343 7.255647 21.781466 1.669790 1.328279 59.601055 -1.337788 13.080792 -9.150575 29.722064 5.152251 7.034935 0.581067 -0.697631 
-1.542552 0.706558 0.990199 -81.175323 0.656389 80.156408 -10.414239 0.831094 10.824506 -0.648401 -6.658833 7.164571 10.910551 20.774402 -11.604851 0.000000 -0.000000 0.000000 -7.419063 -1.372084 -15.689527 -1.470452 -7.833655 61.568312 6.035832 -8.163971 -3.984728 0.000000 -0.000000 0.000000 0.690470 -3.063318 2.845914 0.938661 -1.578585 0.526848 -2.277755 -0.163214 1.281085 0.222581 -5.665290 8.566852 0.024949 -3.482482 -1.381103 -24.276909 -2.489013 1.280381 -52.126493 -9.817789 8.065538 5.794995 -20.396907 6.752333 -2.613808 -1.020767 6.694712 21.114346 0.734902 0.571194 59.533946 -1.109590 13.953226 -8.692964 28.852234 5.214184 5.539958 1.474874 -0.357075 
-1.552889 0.703755 0.990095 -80.197794 1.106707 79.883196 -9.795805 1.621823 12.039071 -0.446494 -7.905537 7.264433 10.100835 20.205515 -12.691110 0.000000 -0.000000 0.000000 -6.392950 -0.051104 -17.843411 -2.089896 -7.105506 56.014517 5.167796 -10.310794 -6.578802 0.000000 -0.000000 0.000000 0.787444 -4.604011 3.646583 1.268457 -2.153043 -0.140512 -1.779696 -1.217883 1.731456 0.083540 -4.765780 8.517783 -0.737009 -1.481085 -1.460898 -24.107052 -2.091022 1.495823 -52.272120 -10.781571 8.069069 5.170965 -20.623350 7.839160 -1.428070 -1.411235 5.736173 20.550669 -0.110718 0.154014 59.225494 -0.934428 14.592702 -8.382635 28.510270 5.232415 3.769987 1.906527 -0.671170 
-1.562989 0.700877 0.989593 -78.856978 1.354139 79.892840 -9.381252 1.827080 12.788070 -0.475158 -8.932185 7.668357 9.236484 19.560834 -13.592627 0.000000 -0.000000 0.000000 -5.649441 1.409440 -19.187500 -2.243505 -6.102193 48.427311 4.903229 -10.863307 -8.099593 0.000000 -0.000000 0.000000 0.511151 -5.925656 3.905223 1.685592 -2.996768 -0.275278 -1.257768 -2.219048 1.984450 -0.096853 -3.975649 8.716494 -1.140316 0.259917 -1.897562 -23.948920 -2.188581 1.924344 -52.611354 -11.604447 8.086120 5.354410 -20.671252 7.861991 -1.794694 -1.863532 5.153183 19.803462 -0.660743 -0.197839 59.229211 -1.024000 15.070237 -8.979370 28.141644 4.980804 4.170163 1.631638 -0.819733 
-1.573426 0.698510 0.988922 -77.651048 1.444459 80.001522 -8.843068 2.200369 13.458219 -0.724041 -9.751627 8.085747 8.152164 18.769210 -14.700187 0.000000 -0.000000 0.000000 -4.898505 2.589517 -20.091538 -1.845504 -4.086945 40.284170 5.426431 -10.694007 -8.688051 0.000000 -0.000000 0.000000 0.150121 -6.818260 3.882848 2.021233 -3.719471 -0.166026 -0.849296 -3.169232 2.440213 0.093821 -3.049337 8.445459 -1.561878 1.916359 -2.383392 -24.052252 -1.997415 2.033307 -52.591222 -12.626909 8.158424 4.974942 -20.726338 7.796192 -0.603116 -2.359297 4.882133 19.513645 -1.601743 -0.467382 58.888280 -0.874333 15.487767 -8.974175 27.681869 4.196795 1.728424 2.047721 -0.982888 
-1.583061 0.696180 0.987956 -76.544191 1.358698 80.079761 -8.347123 2.757655 13.829579 -1.123418 -10.446926 8.893296 7.191067 17.818405 -15.693567 0.000000 -0.000000 0.000000 -4.292980 3.828218 -20.429248 -1.480042 -1.503149 31.695278 6.351657 -10.424861 -8.445972 0.000000 -0.000000 0.000000 -0.192260 -7.499402 4.388526 2.114528 -4.215794 -0.508894 -0.551581 -3.898282 2.700107 0.105048 -2.853485 7.628858 -1.609357 2.819310 -1.847752 -24.108162 -1.907596 2.060533 -52.562776 -13.345703 8.286832 4.646428 -20.836404 8.291519 0.380207 -3.040293 4.348803 19.137309 -2.303849 -0.796881 58.897207 -1.046999 15.683619 -9.282811 26.937933 3.608853 0.731137 1.948183 -1.184231 
-1.594379 0.694046 0.988217 -75.521082 1.510695 79.608329 -6.509606 5.335123 14.722395 -1.801984 -11.775039 10.154789 6.536008 14.341029 -16.913666 0.000000 -0.000000 0.000000 -2.784467 3.438034 -19.315386 -1.870300 2.150370 23.170472 7.133597 -7.207487 -7.697201 0.000000 -0.000000 0.000000 -0.627758 -7.730313 4.500953 2.850554 -4.859359 0.842756 -0.797444 -4.527740 2.590643 2.066770 -0.614358 6.508423 -2.888578 1.863894 -1.430122 -24.296604 -0.985099 0.916068 -52.651244 -14.545619 9.890888 4.050675 -19.977091 11.232331 1.984005 -4.068641 0.212848 20.203803 -4.121917 -1.372825 57.533121 -0.434411 16.131965 -9.926859 26.407162 5.782409 4.569590 1.753641 -2.789674 
-1.604490 0.691854 0.987070 -74.104306 1.264438 80.031961 -6.099246 5.305188 14.729806 -2.313514 -12.253781 11.075067 5.632667 13.159073 -17.361200 0.000000 -0.000000 0.000000 -2.408827 4.046897 -19.067366 -2.645301 4.427720 15.450768 8.545189 -5.350409 -6.619547 0.000000 -0.000000 0.000000 -0.913987 -7.943260 4.436921 2.768940 -5.397163 0.651309 -0.699032 -5.017149 2.623050 2.116468 -0.514254 6.495109 -2.722780 2.124385 -1.263048 -24.286799 -1.081851 1.103318 -52.988123 -15.030765 10.234896 4.066810 -19.744724 11.046416 2.466598 -4.735700 0.179897 19.930563 -4.548166 -1.451053 57.477374 -0.981555 16.098633 -9.997004 25.574808 5.858384 4.027381 1.727990 -2.737406 
-1.615547 0.689870 0.986466 -72.668861 0.951015 80.579770 -5.685429 5.096398 14.697430 -3.017727 -12.646380 11.902289 4.656680 12.222695 -17.950272 0.000000 -0.000000 0.000000 -2.139141 4.636474 -18.817746 -3.555554 6.474814 9.232038 9.161288 -4.376804 -6.713474 0.000000 -0.000000 0.000000 -1.277558 -8.116153 3.886952 2.699492 -5.783111 1.017054 -0.614851 -5.539214 2.647229 2.391110 -0.124459 6.233803 -2.911732 2.474702 -1.578107 -24.608558 -0.679497 1.004390 -53.201714 -15.500486 10.567826 4.025820 -19.686555 10.947644 2.673403 -5.313818 -0.273876 19.835347 -5.293448 -1.509374 56.843274 -0.788769 16.418063 -9.083745 24.472238 6.774587 3.743559 1.786280 -2.811198 
-1.626653 0.687686 0.986037 -70.726372 0.691852 81.123755 -5.315022 4.616458 14.625596 -3.543296 -13.601416 12.817499 3.937066 11.117605 -17.743779 0.000000 -0.000000 0.000000 -2.158408 5.149638 -18.617878 -4.134334 7.539307 5.206881 9.463946 -3.711451 -6.879453 0.000000 -0.000000 0.000000 -1.486535 -8.463164 3.846412 2.649758 -6.194691 0.839346 -0.618635 -5.791942 2.419013 2.292229 -0.099786 6.291805 -2.839542 2.783782 -1.893583 -24.788486 -0.467253 1.172170 -53.642170 -15.662076 10.872456 3.979687 -19.612742 11.142098 2.194114 -5.541642 -0.770815 19.619162 -5.983063 -1.758015 56.545219 -1.371943 16.331556 -8.844451 24.078482 7.637907 4.476348 1.311820 -2.586349 
-1.638767 0.685571 0.985929 -68.621828 0.391904 81.519164 -5.037355 3.901962 14.923296 -3.984741 -14.621642 13.341310 3.515936 10.526715 -17.148942 0.000000 -0.000000 0.000000 -2.555179 6.117682 -18.206518 -4.138156 9.682604 3.296159 10.134717 -2.267264 -6.400885 0.000000 -0.000000 0.000000 -1.703388 -8.586396 3.204140 2.568016 -6.537188 1.412250 -0.744209 -6.184177 2.377357 2.253763 -0.036828 6.236263 -2.850436 2.962144 -2.272229 -24.973843 -0.699297 1.429736 -54.042007 -15.760238 11.301427 4.210022 -19.286415 10.973198 0.627386 -5.470693 -1.345326 19.502173 -6.140952 -1.778062 56.441361 -1.567077 16.344056 -9.270580 23.682891 7.957254 6.247175 0.536575 -2.111757 
